<svg xmlns="http://www.w3.org/2000/svg" xmlns:xlink="http://www.w3.org/1999/xlink" width="500" zoomAndPan="magnify" viewBox="0 0 375 374.999991" height="500" preserveAspectRatio="xMidYMid meet" version="1.0"><defs><clipPath id="121fdec0ba"><path d="M 75 239 L 178 239 L 178 359.367188 L 75 359.367188 Z M 75 239 " clip-rule="nonzero"/></clipPath><clipPath id="1a60729a8a"><path d="M 7.042969 15.902344 L 367.792969 15.902344 L 367.792969 359.367188 L 7.042969 359.367188 Z M 7.042969 15.902344 " clip-rule="nonzero"/></clipPath></defs><g clip-path="url(#121fdec0ba)"><path fill="#6366f1" d="M 177.332031 285.488281 L 75.96875 359.132812 L 114.6875 239.972656 L 127.40625 249.214844 L 164.617188 276.253906 L 177.332031 285.488281 " fill-opacity="1" fill-rule="nonzero"/></g><g clip-path="url(#1a60729a8a)"><path fill="#10b981" d="M 367.949219 146.996094 L 230.09375 146.996094 L 187.5 15.894531 L 144.898438 146.996094 L 7.042969 146.996094 L 118.566406 228.027344 L 134.425781 239.542969 L 171.640625 266.585938 L 187.5 278.105469 L 299.023438 359.132812 L 256.421875 228.027344 Z M 263.570312 310.410156 L 187.5 255.140625 L 140.480469 220.984375 L 64.402344 165.710938 L 158.4375 165.710938 L 187.5 76.285156 L 216.550781 165.710938 L 310.585938 165.710938 L 234.511719 220.984375 L 263.570312 310.410156 " fill-opacity="1" fill-rule="nonzero"/></g><path fill="#6366f1" d="M 221.332031 225.304688 L 237.207031 274.167969 L 195.644531 243.972656 L 148.625 209.8125 L 107.054688 179.613281 L 168.507812 179.613281 L 171.617188 170.035156 L 187.5 121.171875 L 203.371094 170.035156 L 206.484375 179.613281 L 267.9375 179.613281 L 226.363281 209.8125 L 218.21875 215.730469 L 221.332031 225.304688 " fill-opacity="1" fill-rule="nonzero"/></svg>